<?xml version="1.0" encoding="utf-8"?>
<!-- Generator: Adobe Illustrator 22.0.1, SVG Export Plug-In . SVG Version: 6.00 Build 0)  -->
<svg version="1.1" id="Layer_1" xmlns="http://www.w3.org/2000/svg" xmlns:xlink="http://www.w3.org/1999/xlink" x="0px" y="0px"
	 viewBox="0 0 100 100" style="enable-background:new 0 0 100 100;" xml:space="preserve">
<style type="text/css">
	.st0{fill:#ff3e00;}
	.st3{fill:#FFFFFF;}
</style>
<g>
	<path class="st0" d="M44.6,2.2L2.2,44.6c-3,3-3,7.8,0,10.8l42.4,42.4c3,3,7.8,3,10.8,0l42.4-42.4c3-3,3-7.8,0-10.8L55.4,2.2
		C52.4-0.7,47.6-0.7,44.6,2.2z"/>
	<path class="st3" d="M72.5,37.9l-4.6-4.6c-0.7-0.7-1.8-0.7-2.5,0L42.9,55.8l-8.4-8.4c-0.7-0.7-1.8-0.7-2.5,0L27.5,52
		c-0.7,0.7-0.7,1.8,0,2.5l9.6,9.6l0,0l4.6,4.6c0.7,0.7,1.8,0.7,2.5,0l28.3-28.3C73.2,39.7,73.2,38.6,72.5,37.9z"/>
</g>
</svg>
